# xmcd
#
# Track frame offsets:
#	183
#	22028
#	51083
#
# Disc length: 879 seconds
#
# Revision: 1
# Processed by: cddbd v1.5.2PL0 Copyright (c) Steve Scherf et al.
# Submitted via: EZCDAudioConverter 7.1.1.1
#
DISCID=1f036d03
DTITLE=MC Miker G and DJ Sven - Holiday Rap (Remix)
DYEAR=1991
DGENRE=Dance
TTITLE0=Holiday Rap (Remix Radio Version)
TTITLE1=Holiday Rap (12 Inch Version)
TTITLE2=That'll Do It
EXTD=
EXTT0=
EXTT1=
EXTT2=
PLAYORDER=
